<mxfile host="app.diagrams.net" modified="2023-12-18T07:10:25.870Z" agent="Mozilla/5.0 (X11; Linux x86_64) AppleWebKit/537.36 (KHTML, like Gecko) Chrome/114.0.0.0 Safari/537.36" etag="LTBjlUox4uV5HClIEkkN" version="21.7.2" type="github">
  <diagram name="第 1 页" id="xP9abSUtIkvkSNLEg5dz">
    <mxGraphModel dx="-1494" dy="149" grid="1" gridSize="10" guides="1" tooltips="1" connect="1" arrows="1" fold="1" page="0" pageScale="1" pageWidth="827" pageHeight="1169" math="0" shadow="0">
      <root>
        <mxCell id="0" />
        <mxCell id="1" parent="0" />
        <mxCell id="8e8UL9VZ8Oz_HZpOVkfp-1" value="A_INTLIT_11" style="rounded=1;whiteSpace=wrap;html=1;fontSize=10;align=center;verticalAlign=middle;" parent="1" vertex="1">
          <mxGeometry x="2740" y="1040" width="80" height="40" as="geometry" />
        </mxCell>
        <mxCell id="8e8UL9VZ8Oz_HZpOVkfp-2" value="&lt;font style=&quot;font-size: 10px;&quot;&gt;A_LVIDENT_13&lt;/font&gt;" style="rounded=1;whiteSpace=wrap;html=1;fontSize=16;align=center;" parent="1" vertex="1">
          <mxGeometry x="2860" y="1040" width="80" height="40" as="geometry" />
        </mxCell>
        <mxCell id="8e8UL9VZ8Oz_HZpOVkfp-3" value="&lt;font style=&quot;font-size: 10px;&quot;&gt;A_ASSIGN_14&lt;/font&gt;" style="rounded=1;whiteSpace=wrap;html=1;fontSize=16;" parent="1" vertex="1">
          <mxGeometry x="2800" y="960" width="80" height="40" as="geometry" />
        </mxCell>
        <mxCell id="8e8UL9VZ8Oz_HZpOVkfp-4" value="" style="endArrow=none;html=1;rounded=1;fontSize=12;startSize=8;endSize=8;edgeStyle=none;curved=1;entryX=0.5;entryY=0;entryDx=0;entryDy=0;exitX=0.5;exitY=1;exitDx=0;exitDy=0;" parent="1" source="8e8UL9VZ8Oz_HZpOVkfp-3" target="8e8UL9VZ8Oz_HZpOVkfp-2" edge="1">
          <mxGeometry width="50" height="50" relative="1" as="geometry">
            <mxPoint x="2870" y="1070" as="sourcePoint" />
            <mxPoint x="2950" y="1030" as="targetPoint" />
          </mxGeometry>
        </mxCell>
        <mxCell id="8e8UL9VZ8Oz_HZpOVkfp-5" value="" style="endArrow=none;html=1;rounded=1;fontSize=12;startSize=8;endSize=8;edgeStyle=none;curved=1;entryX=0.5;entryY=1;entryDx=0;entryDy=0;" parent="1" target="8e8UL9VZ8Oz_HZpOVkfp-9" edge="1">
          <mxGeometry width="50" height="50" relative="1" as="geometry">
            <mxPoint x="2840.0000000000005" y="960" as="sourcePoint" />
            <mxPoint x="2960.0000000000005" y="920" as="targetPoint" />
          </mxGeometry>
        </mxCell>
        <mxCell id="8e8UL9VZ8Oz_HZpOVkfp-6" value="&lt;font style=&quot;font-size: 10px;&quot;&gt;A_INTLIT_11&lt;/font&gt;" style="rounded=1;whiteSpace=wrap;html=1;fontSize=16;" parent="1" vertex="1">
          <mxGeometry x="2980" y="1040" width="80" height="40" as="geometry" />
        </mxCell>
        <mxCell id="8e8UL9VZ8Oz_HZpOVkfp-7" value="" style="endArrow=none;html=1;rounded=1;fontSize=12;startSize=8;endSize=8;edgeStyle=none;curved=1;entryX=0.5;entryY=0;entryDx=0;entryDy=0;" parent="1" edge="1">
          <mxGeometry width="50" height="50" relative="1" as="geometry">
            <mxPoint x="2960" y="880" as="sourcePoint" />
            <mxPoint x="3080" y="960" as="targetPoint" />
          </mxGeometry>
        </mxCell>
        <mxCell id="8e8UL9VZ8Oz_HZpOVkfp-8" value="" style="endArrow=none;html=1;rounded=1;fontSize=12;startSize=8;endSize=8;edgeStyle=none;curved=1;exitX=0.5;exitY=0;exitDx=0;exitDy=0;" parent="1" source="8e8UL9VZ8Oz_HZpOVkfp-1" edge="1">
          <mxGeometry width="50" height="50" relative="1" as="geometry">
            <mxPoint x="2850" y="1010" as="sourcePoint" />
            <mxPoint x="2840" y="1000" as="targetPoint" />
          </mxGeometry>
        </mxCell>
        <mxCell id="8e8UL9VZ8Oz_HZpOVkfp-9" value="&lt;span style=&quot;font-size: 10px;&quot;&gt;A_GLUE_16&lt;/span&gt;" style="rounded=1;whiteSpace=wrap;html=1;fontSize=16;" parent="1" vertex="1">
          <mxGeometry x="2920" y="840" width="80" height="40" as="geometry" />
        </mxCell>
        <mxCell id="8e8UL9VZ8Oz_HZpOVkfp-10" value="&lt;font style=&quot;font-size: 10px;&quot;&gt;A_ASSIGN&lt;/font&gt;" style="rounded=1;whiteSpace=wrap;html=1;fontSize=16;" parent="1" vertex="1">
          <mxGeometry x="3040" y="960" width="80" height="40" as="geometry" />
        </mxCell>
        <mxCell id="8e8UL9VZ8Oz_HZpOVkfp-11" value="" style="endArrow=none;html=1;rounded=1;fontSize=12;startSize=8;endSize=8;edgeStyle=none;curved=1;exitX=0.5;exitY=0;exitDx=0;exitDy=0;" parent="1" edge="1">
          <mxGeometry width="50" height="50" relative="1" as="geometry">
            <mxPoint x="3020" y="1040" as="sourcePoint" />
            <mxPoint x="3080" y="1000" as="targetPoint" />
          </mxGeometry>
        </mxCell>
        <mxCell id="8e8UL9VZ8Oz_HZpOVkfp-12" value="&lt;font style=&quot;font-size: 10px;&quot;&gt;A_LVIDENT_13&lt;/font&gt;" style="rounded=1;whiteSpace=wrap;html=1;fontSize=16;" parent="1" vertex="1">
          <mxGeometry x="3100" y="1040" width="80" height="40" as="geometry" />
        </mxCell>
        <mxCell id="8e8UL9VZ8Oz_HZpOVkfp-13" value="" style="endArrow=none;html=1;rounded=1;fontSize=12;startSize=8;endSize=8;edgeStyle=none;curved=1;entryX=0.5;entryY=0;entryDx=0;entryDy=0;exitX=0.5;exitY=1;exitDx=0;exitDy=0;" parent="1" edge="1">
          <mxGeometry width="50" height="50" relative="1" as="geometry">
            <mxPoint x="3080" y="1000" as="sourcePoint" />
            <mxPoint x="3140" y="1040" as="targetPoint" />
          </mxGeometry>
        </mxCell>
        <mxCell id="8e8UL9VZ8Oz_HZpOVkfp-14" value="&lt;span style=&quot;font-size: 10px;&quot;&gt;A_GLUE_16&lt;/span&gt;" style="rounded=1;whiteSpace=wrap;html=1;fontSize=16;" parent="1" vertex="1">
          <mxGeometry x="3280" y="680" width="80" height="40" as="geometry" />
        </mxCell>
        <mxCell id="8e8UL9VZ8Oz_HZpOVkfp-15" value="" style="endArrow=none;html=1;rounded=1;fontSize=12;startSize=8;endSize=8;edgeStyle=none;curved=1;entryX=0.5;entryY=1;entryDx=0;entryDy=0;exitX=0.5;exitY=0;exitDx=0;exitDy=0;" parent="1" source="8e8UL9VZ8Oz_HZpOVkfp-9" target="8e8UL9VZ8Oz_HZpOVkfp-14" edge="1">
          <mxGeometry width="50" height="50" relative="1" as="geometry">
            <mxPoint x="3140" y="840" as="sourcePoint" />
            <mxPoint x="3259.9999999999995" y="760" as="targetPoint" />
          </mxGeometry>
        </mxCell>
        <mxCell id="8e8UL9VZ8Oz_HZpOVkfp-16" value="" style="endArrow=none;html=1;rounded=1;fontSize=12;startSize=8;endSize=8;edgeStyle=none;curved=1;entryX=0.5;entryY=0;entryDx=0;entryDy=0;exitX=0.5;exitY=1;exitDx=0;exitDy=0;" parent="1" source="8e8UL9VZ8Oz_HZpOVkfp-14" target="8e8UL9VZ8Oz_HZpOVkfp-17" edge="1">
          <mxGeometry width="50" height="50" relative="1" as="geometry">
            <mxPoint x="3260.0000000000005" y="760" as="sourcePoint" />
            <mxPoint x="3400" y="780" as="targetPoint" />
          </mxGeometry>
        </mxCell>
        <mxCell id="8e8UL9VZ8Oz_HZpOVkfp-17" value="&lt;span style=&quot;font-size: 10px;&quot;&gt;A_IF_17&lt;/span&gt;" style="rounded=1;whiteSpace=wrap;html=1;fontSize=16;" parent="1" vertex="1">
          <mxGeometry x="3380" y="760" width="80" height="40" as="geometry" />
        </mxCell>
        <mxCell id="8e8UL9VZ8Oz_HZpOVkfp-18" value="&lt;span style=&quot;font-size: 10px;&quot;&gt;A_LT_7&lt;/span&gt;" style="rounded=1;whiteSpace=wrap;html=1;fontSize=16;" parent="1" vertex="1">
          <mxGeometry x="3220" y="840" width="80" height="40" as="geometry" />
        </mxCell>
        <mxCell id="8e8UL9VZ8Oz_HZpOVkfp-19" value="&lt;font style=&quot;font-size: 10px;&quot;&gt;A_PRINT_15&lt;/font&gt;" style="rounded=1;whiteSpace=wrap;html=1;fontSize=16;" parent="1" vertex="1">
          <mxGeometry x="3380" y="840" width="80" height="40" as="geometry" />
        </mxCell>
        <mxCell id="8e8UL9VZ8Oz_HZpOVkfp-20" value="" style="endArrow=none;html=1;rounded=1;fontSize=12;startSize=8;endSize=8;edgeStyle=none;curved=1;entryX=0.5;entryY=1;entryDx=0;entryDy=0;exitX=0.5;exitY=0;exitDx=0;exitDy=0;" parent="1" source="8e8UL9VZ8Oz_HZpOVkfp-18" edge="1">
          <mxGeometry width="50" height="50" relative="1" as="geometry">
            <mxPoint x="3300" y="880" as="sourcePoint" />
            <mxPoint x="3419.9999999999995" y="800" as="targetPoint" />
          </mxGeometry>
        </mxCell>
        <mxCell id="8e8UL9VZ8Oz_HZpOVkfp-21" value="" style="endArrow=none;html=1;rounded=1;fontSize=12;startSize=8;endSize=8;edgeStyle=none;curved=1;exitX=0.5;exitY=0;exitDx=0;exitDy=0;" parent="1" source="8e8UL9VZ8Oz_HZpOVkfp-19" edge="1">
          <mxGeometry width="50" height="50" relative="1" as="geometry">
            <mxPoint x="3370" y="900" as="sourcePoint" />
            <mxPoint x="3420" y="800" as="targetPoint" />
          </mxGeometry>
        </mxCell>
        <mxCell id="8e8UL9VZ8Oz_HZpOVkfp-22" value="" style="endArrow=none;html=1;rounded=1;fontSize=12;startSize=8;endSize=8;edgeStyle=none;curved=1;entryX=0.5;entryY=1;entryDx=0;entryDy=0;exitX=0.5;exitY=0;exitDx=0;exitDy=0;" parent="1" source="8e8UL9VZ8Oz_HZpOVkfp-25" target="8e8UL9VZ8Oz_HZpOVkfp-17" edge="1">
          <mxGeometry width="50" height="50" relative="1" as="geometry">
            <mxPoint x="3520" y="840" as="sourcePoint" />
            <mxPoint x="3489.9999999999995" y="830" as="targetPoint" />
          </mxGeometry>
        </mxCell>
        <mxCell id="8e8UL9VZ8Oz_HZpOVkfp-23" value="&lt;font style=&quot;font-size: 10px;&quot;&gt;A_IDENT_12&lt;/font&gt;" style="rounded=1;whiteSpace=wrap;html=1;fontSize=16;" parent="1" vertex="1">
          <mxGeometry x="3380" y="920" width="80" height="40" as="geometry" />
        </mxCell>
        <mxCell id="8e8UL9VZ8Oz_HZpOVkfp-24" value="" style="endArrow=none;html=1;rounded=1;fontSize=12;startSize=8;endSize=8;edgeStyle=none;curved=1;" parent="1" edge="1">
          <mxGeometry width="50" height="50" relative="1" as="geometry">
            <mxPoint x="3419.8" y="920" as="sourcePoint" />
            <mxPoint x="3419.8" y="880" as="targetPoint" />
          </mxGeometry>
        </mxCell>
        <mxCell id="8e8UL9VZ8Oz_HZpOVkfp-25" value="&lt;font style=&quot;font-size: 10px;&quot;&gt;A_PRINT_15&lt;/font&gt;" style="rounded=1;whiteSpace=wrap;html=1;fontSize=16;" parent="1" vertex="1">
          <mxGeometry x="3500" y="840" width="80" height="40" as="geometry" />
        </mxCell>
        <mxCell id="8e8UL9VZ8Oz_HZpOVkfp-26" value="" style="endArrow=none;html=1;rounded=1;fontSize=12;startSize=8;endSize=8;edgeStyle=none;curved=1;" parent="1" edge="1">
          <mxGeometry width="50" height="50" relative="1" as="geometry">
            <mxPoint x="3539.8" y="920" as="sourcePoint" />
            <mxPoint x="3539.8" y="880" as="targetPoint" />
          </mxGeometry>
        </mxCell>
        <mxCell id="8e8UL9VZ8Oz_HZpOVkfp-27" value="&lt;font style=&quot;font-size: 10px;&quot;&gt;A_IDENT_12&lt;/font&gt;" style="rounded=1;whiteSpace=wrap;html=1;fontSize=16;" parent="1" vertex="1">
          <mxGeometry x="3500" y="920" width="80" height="40" as="geometry" />
        </mxCell>
        <mxCell id="8e8UL9VZ8Oz_HZpOVkfp-28" value="&lt;font style=&quot;font-size: 10px;&quot;&gt;A_IDENT_12&lt;/font&gt;" style="rounded=1;whiteSpace=wrap;html=1;fontSize=16;" parent="1" vertex="1">
          <mxGeometry x="3160" y="920" width="80" height="40" as="geometry" />
        </mxCell>
        <mxCell id="8e8UL9VZ8Oz_HZpOVkfp-29" value="&lt;font style=&quot;font-size: 10px;&quot;&gt;A_IDENT_12&lt;/font&gt;" style="rounded=1;whiteSpace=wrap;html=1;fontSize=16;" parent="1" vertex="1">
          <mxGeometry x="3280" y="920" width="80" height="40" as="geometry" />
        </mxCell>
        <mxCell id="8e8UL9VZ8Oz_HZpOVkfp-30" value="" style="endArrow=none;html=1;rounded=1;fontSize=12;startSize=8;endSize=8;edgeStyle=none;curved=1;exitX=0.5;exitY=0;exitDx=0;exitDy=0;" parent="1" edge="1">
          <mxGeometry width="50" height="50" relative="1" as="geometry">
            <mxPoint x="3200" y="920" as="sourcePoint" />
            <mxPoint x="3260" y="880" as="targetPoint" />
          </mxGeometry>
        </mxCell>
        <mxCell id="8e8UL9VZ8Oz_HZpOVkfp-31" value="" style="endArrow=none;html=1;rounded=1;fontSize=12;startSize=8;endSize=8;edgeStyle=none;curved=1;entryX=0.5;entryY=0;entryDx=0;entryDy=0;exitX=0.5;exitY=1;exitDx=0;exitDy=0;" parent="1" edge="1">
          <mxGeometry width="50" height="50" relative="1" as="geometry">
            <mxPoint x="3260" y="880" as="sourcePoint" />
            <mxPoint x="3320" y="920" as="targetPoint" />
          </mxGeometry>
        </mxCell>
      </root>
    </mxGraphModel>
  </diagram>
</mxfile>
